<svg width="48" height="47" viewBox="0 0 48 47" fill="none" xmlns="http://www.w3.org/2000/svg">
<path d="M20.4539 20.3471C19.3372 20.3471 18.4556 21.3263 18.4556 22.5209C18.4556 23.7154 19.3568 24.6946 20.4539 24.6946C21.5707 24.6946 22.4523 23.7154 22.4523 22.5209C22.4719 21.3263 21.5707 20.3471 20.4539 20.3471ZM27.605 20.3471C26.4882 20.3471 25.6066 21.3263 25.6066 22.5209C25.6066 23.7154 26.5078 24.6946 27.605 24.6946C28.7217 24.6946 29.6033 23.7154 29.6033 22.5209C29.6033 21.3263 28.7217 20.3471 27.605 20.3471Z" fill="white"/>
<path d="M37.1266 3.91669H10.8735C8.65963 3.91669 6.85718 5.71835 6.85718 7.95085V34.4275C6.85718 36.66 8.65963 38.4617 10.8735 38.4617H33.0907L32.0523 34.8388L34.56 37.1692L36.9307 39.3625L41.1429 43.0834V7.95085C41.1429 5.71835 39.3405 3.91669 37.1266 3.91669ZM29.5641 29.4925C29.5641 29.4925 28.8588 28.6504 28.2711 27.9063C30.8376 27.1817 31.8172 25.5759 31.8172 25.5759C31.0139 26.1046 30.2498 26.4767 29.5641 26.7313C28.5845 27.1425 27.6441 27.4167 26.7233 27.5734C24.8425 27.9259 23.1184 27.8279 21.649 27.5538C20.5323 27.3384 19.5723 27.025 18.769 26.7117C18.3184 26.5354 17.8286 26.32 17.3388 26.0459C17.28 26.0067 17.2213 25.9871 17.1625 25.9479C17.1233 25.9284 17.1037 25.9088 17.0841 25.8892C16.7315 25.6934 16.5355 25.5563 16.5355 25.5563C16.5355 25.5563 17.476 27.1229 19.9641 27.8671C19.3764 28.6113 18.6515 29.4925 18.6515 29.4925C14.3217 29.3554 12.676 26.5159 12.676 26.5159C12.676 20.21 15.4972 15.0988 15.4972 15.0988C18.3184 12.9838 21.0025 13.0425 21.0025 13.0425L21.1984 13.2775C17.6719 14.2959 16.0458 15.8429 16.0458 15.8429C16.0458 15.8429 16.4768 15.6079 17.2017 15.275C19.298 14.3546 20.9633 14.1 21.649 14.0413C21.7666 14.0217 21.8645 14.0021 21.9821 14.0021C23.1772 13.8454 24.529 13.8063 25.9396 13.9629C27.8009 14.1784 29.7992 14.7267 31.8368 15.8429C31.8368 15.8429 30.289 14.3742 26.9584 13.3559L27.2327 13.0425C27.2327 13.0425 29.9168 12.9838 32.738 15.0988C32.738 15.0988 35.5592 20.21 35.5592 26.5159C35.5592 26.5159 33.8939 29.3554 29.5641 29.4925V29.4925Z" fill="white"/>
</svg>
