<svg width="36" height="36" viewBox="0 0 36 36" fill="none" xmlns="http://www.w3.org/2000/svg">
<g clip-path="url(#clip0)">
<path d="M17.9999 23.1429L13.5462 19.2446L0.8125 30.1603C1.27536 30.5898 1.90021 30.8572 2.58936 30.8572H33.4105C34.0971 30.8572 34.7194 30.5898 35.1796 30.1603L22.4536 19.2446L17.9999 23.1429Z" fill="white"/>
<path d="M35.1875 5.83974C34.7246 5.40774 34.1023 5.14288 33.4106 5.14288H2.58946C1.90289 5.14288 1.28061 5.41031 0.817749 5.84488L18 20.5715L35.1875 5.83974Z" fill="white"/>
<path d="M0 7.40057V28.764L12.4277 18.2031L0 7.40057Z" fill="white"/>
<path d="M23.5723 18.2032L36 28.764V7.39288L23.5723 18.2032Z" fill="white"/>
</g>
<defs>
<clipPath id="clip0">
<rect width="36" height="36" fill="white"/>
</clipPath>
</defs>
</svg>
