<svg width="32" height="32" viewBox="0 0 32 32" fill="none" xmlns="http://www.w3.org/2000/svg">
<path d="M26 0H5.99997C2.68597 0 0 2.68597 0 5.99997V26C0 29.314 2.68597 31.9999 5.99997 31.9999H26C29.314 31.9999 31.9999 29.3139 31.9999 26V5.99997C32 2.68597 29.314 0 26 0ZM23.96 12.408L23.972 12.918C23.972 18.126 20.01 24.126 12.764 24.126C10.54 24.126 8.46994 23.474 6.72597 22.356C7.034 22.3919 7.34795 22.4119 7.66598 22.4119C9.512 22.4119 11.21 21.7819 12.558 20.7259C10.834 20.694 9.37996 19.5539 8.87797 17.99C9.11995 18.034 9.36397 18.058 9.61996 18.058C9.97997 18.058 10.3279 18.012 10.6579 17.922C8.85594 17.558 7.49795 15.968 7.49795 14.06V14.01C8.02993 14.306 8.63593 14.482 9.28193 14.5041C8.22592 13.7981 7.52993 12.592 7.52993 11.226C7.52993 10.5041 7.72394 9.82806 8.06191 9.24607C10.0039 11.6301 12.9079 13.198 16.1819 13.3621C16.1139 13.074 16.0799 12.7721 16.0799 12.4641C16.0799 10.2901 17.8439 8.52606 20.0199 8.52606C21.1519 8.52606 22.176 9.00403 22.8959 9.77003C23.7919 9.592 24.6359 9.26403 25.3979 8.81403C25.1039 9.73404 24.4799 10.506 23.6659 10.994C24.4599 10.9 25.2219 10.686 25.9279 10.374C25.4 11.162 24.7299 11.856 23.96 12.408Z" fill="white"/>
</svg>
