<svg width="32" height="32" viewBox="0 0 32 32" fill="none" xmlns="http://www.w3.org/2000/svg">
<g clip-path="url(#clip0)">
<path d="M28.8 3.84001C27.84 3.52001 21.92 3.20001 16 3.20001C10.08 3.20001 4.16 3.52001 3.2 3.84001C0.64 4.64001 0 10.24 0 16C0 21.76 0.64 27.36 3.2 28.16C4.16 28.48 10.08 28.8 16 28.8C21.92 28.8 27.84 28.48 28.8 28.16C31.36 27.36 32 21.76 32 16C32 10.24 31.36 4.64001 28.8 3.84001ZM12.8 23.2V8.80001L22.4 16L12.8 23.2Z" fill="white"/>
</g>
<defs>
<clipPath id="clip0">
<rect width="32" height="32" fill="white"/>
</clipPath>
</defs>
</svg>
